# xmcd
#
# Track frame offsets: 
#        150
#        19520
#        40262
#        65737
#        83955
#        102557
#        120087
#        133505
#        154865
#        167972
#        187097
#
# Disc length: 2791 seconds
#
# Revision: 0
# Processed by: cddbd v1.4PL0 Copyright (c) Steve Scherf et al.
# Submitted via: ExactAudioCopy v0.90b4
#
DISCID=910ae50b
DTITLE=The Sandra Wright Band - Shake You Down
DYEAR=1995
DGENRE=Blues
TTITLE0=Don't Do Me
TTITLE1=Shake You Down
TTITLE2=Who To Believe
TTITLE3=Another Hard Day
TTITLE4=Be So Cold
TTITLE5=Payin' The Price
TTITLE6=Who Said
TTITLE7=Can't Stand The Rain
TTITLE8=Invested In You
TTITLE9=I Don't Understand
TTITLE10=Love and Happiness
EXTD=
EXTT0=
EXTT1=
EXTT2=
EXTT3=
EXTT4=
EXTT5=
EXTT6=
EXTT7=
EXTT8=
EXTT9=
EXTT10=
PLAYORDER=
